<svg width="80" height="80" viewBox="0 0 80 80" fill="none" xmlns="http://www.w3.org/2000/svg">
<g filter="url(#filter0_d_1_14)">
<path d="M37.3334 73.3333C57.2156 73.3333 73.3334 57.2156 73.3334 37.3333C73.3334 17.451 57.2156 1.33331 37.3334 1.33331C17.4511 1.33331 1.33337 17.451 1.33337 37.3333C1.33337 57.2156 17.4511 73.3333 37.3334 73.3333Z" fill="#F93535"/>
<path d="M37.3333 54.6667C46.9063 54.6667 54.6667 46.9063 54.6667 37.3333C54.6667 27.7604 46.9063 20 37.3333 20C27.7604 20 20 27.7604 20 37.3333V54.6667H37.3333Z" fill="white"/>
<path d="M45.3334 34.6666H29.3334V37.3333H45.3334V34.6666Z" fill="#F93535"/>
<path d="M36 41.3333H29.3334V44H36V41.3333Z" fill="#F93535"/>
</g>
<defs>
<filter id="filter0_d_1_14" x="0.333374" y="0.333313" width="78" height="78" filterUnits="userSpaceOnUse" color-interpolation-filters="sRGB">
<feFlood flood-opacity="0" result="BackgroundImageFix"/>
<feColorMatrix in="SourceAlpha" type="matrix" values="0 0 0 0 0 0 0 0 0 0 0 0 0 0 0 0 0 0 127 0" result="hardAlpha"/>
<feOffset dx="2" dy="2"/>
<feGaussianBlur stdDeviation="1.5"/>
<feComposite in2="hardAlpha" operator="out"/>
<feColorMatrix type="matrix" values="0 0 0 0 0 0 0 0 0 0 0 0 0 0 0 0 0 0 0.25 0"/>
<feBlend mode="normal" in2="BackgroundImageFix" result="effect1_dropShadow_1_14"/>
<feBlend mode="normal" in="SourceGraphic" in2="effect1_dropShadow_1_14" result="shape"/>
</filter>
</defs>
</svg>
